<svg width="32" height="32" viewBox="0 0 32 32" fill="none" xmlns="http://www.w3.org/2000/svg">
<g clip-path="url(#clip0_222_2)">
<path d="M19.187 18.2311C18.8069 18.2408 18.445 18.3961 18.1761 18.665C17.9072 18.9339 17.7519 19.2958 17.7422 19.6759V29.3538C17.7361 29.5524 17.7699 29.7501 17.8417 29.9354C17.9134 30.1207 18.0217 30.2896 18.16 30.4322C18.2984 30.5748 18.4639 30.6882 18.6469 30.7656C18.8299 30.8429 19.0266 30.8828 19.2252 30.8827H28.8649C29.2704 30.8827 29.6593 30.7216 29.946 30.4349C30.2327 30.1481 30.3938 29.7593 30.3938 29.3538V19.6759C30.3939 19.4772 30.354 19.2806 30.2767 19.0976C30.1993 18.9146 30.0859 18.749 29.9433 18.6107C29.8007 18.4724 29.6318 18.3641 29.4465 18.2923C29.2613 18.2206 29.0635 18.1867 28.8649 18.1929L19.187 18.2311ZM3.56177 2.56C3.16295 2.56997 2.78382 2.73544 2.50531 3.02109C2.2268 3.30674 2.07098 3.68994 2.07111 4.08889V13.7285C2.07101 13.9272 2.11084 14.1239 2.18822 14.3069C2.2656 14.4898 2.37896 14.6554 2.52156 14.7937C2.66417 14.9321 2.83311 15.0403 3.01837 15.1121C3.20363 15.1839 3.40142 15.2177 3.6 15.2116H13.2396C13.633 15.2116 14.0102 15.0553 14.2883 14.7772C14.5664 14.4991 14.7227 14.1219 14.7227 13.7285V4.05066C14.7237 3.85527 14.6861 3.6616 14.612 3.48079C14.5379 3.29998 14.4288 3.13559 14.291 2.99706C14.1532 2.85854 13.9894 2.74862 13.8089 2.67361C13.6285 2.59861 13.435 2.55999 13.2396 2.56H3.56177Z" stroke="#4457BD" stroke-width="2" stroke-linecap="round" stroke-linejoin="round"/>
<path d="M28.1234 2.56H19.9362C18.7034 2.56 17.704 3.55938 17.704 4.79218V12.9794C17.704 14.2122 18.7034 15.2116 19.9362 15.2116H28.1234C29.3562 15.2116 30.3556 14.2122 30.3556 12.9794V4.79218C30.3556 3.55938 29.3562 2.56 28.1234 2.56Z" stroke="#0745BC" stroke-width="2" stroke-linecap="round" stroke-linejoin="round"/>
<path d="M13.232 18.1929H3.56177C2.7385 18.1929 2.07111 18.8603 2.07111 19.6836V29.3538C2.07111 30.177 2.7385 30.8444 3.56177 30.8444H13.232C14.0553 30.8444 14.7227 30.177 14.7227 29.3538V19.6836C14.7227 18.8603 14.0553 18.1929 13.232 18.1929Z" stroke="#0745BC" stroke-width="2" stroke-linecap="round" stroke-linejoin="round"/>
<g filter="url(#filter0_d_222_2)">
<path d="M8.40072 5.86667V11.4667M5.60001 8.8896H11.2M20.8 22.2827H26.9333M20.8 26.747H26.9333" stroke="#024646" stroke-width="2" stroke-linecap="round" stroke-linejoin="round" shape-rendering="crispEdges"/>
</g>
</g>
<defs>
<filter id="filter0_d_222_2" x="0.600006" y="4.86667" width="31.3333" height="30.8804" filterUnits="userSpaceOnUse" color-interpolation-filters="sRGB">
<feFlood flood-opacity="0" result="BackgroundImageFix"/>
<feColorMatrix in="SourceAlpha" type="matrix" values="0 0 0 0 0 0 0 0 0 0 0 0 0 0 0 0 0 0 127 0" result="hardAlpha"/>
<feOffset dy="4"/>
<feGaussianBlur stdDeviation="2"/>
<feComposite in2="hardAlpha" operator="out"/>
<feColorMatrix type="matrix" values="0 0 0 0 0 0 0 0 0 0 0 0 0 0 0 0 0 0 0.25 0"/>
<feBlend mode="normal" in2="BackgroundImageFix" result="effect1_dropShadow_222_2"/>
<feBlend mode="normal" in="SourceGraphic" in2="effect1_dropShadow_222_2" result="shape"/>
</filter>
<clipPath id="clip0_222_2">
<rect width="32" height="32" fill="white"/>
</clipPath>
</defs>
</svg>
