<svg xmlns="http://www.w3.org/2000/svg" width="71" height="72" viewBox="0 0 71 72" fill="none">
<g clip-path="url(#clip0_4_9)">
<path d="M53.0615 19.6655C55.5824 21.0632 55.5824 24.7147 53.0615 26.1123L29.3108 39.28C26.8787 40.6284 23.9028 38.8547 23.9028 36.0566V9.72122C23.9028 6.92316 26.8787 5.14943 29.3108 6.49781L53.0615 19.6655Z" fill="#34F5C6"/>
<path d="M40.8164 26.4405C43.3372 27.8381 43.3372 31.4897 40.8164 32.8873L17.0657 46.0548C14.6336 47.4033 11.6577 45.6297 11.6577 42.8314V16.4962C11.6577 13.6982 14.6336 11.9244 17.0657 13.2728L40.8164 26.4405Z" fill="#1DCDFE"/>
<path d="M53.0615 33.0989C55.5824 34.4965 55.5824 38.148 53.0615 39.5457L29.3108 52.7134C26.8787 54.0619 23.9028 52.2879 23.9028 49.49V23.1546C23.9028 20.3565 26.8787 18.5828 29.3108 19.9312L53.0615 33.0989Z" fill="#21D0B3"/>
<path d="M40.8356 26.3452C43.352 27.7439 43.352 31.3893 40.8356 32.788L29.3252 39.1867C26.893 40.5387 23.9136 38.7652 23.9136 35.9653V23.1679C23.9136 20.3681 26.893 18.5945 29.3252 19.9465L40.8356 26.3452Z" fill="#006CA9"/>
</g>
<defs>
<clipPath id="clip0_4_9">
<rect width="71" height="71" fill="white" transform="translate(0 0.5)"/>
</clipPath>
</defs>
</svg>